G04 PROTEUS RS274X GERBER FILE*
%FSLAX45Y45*%
%MOMM*%
G01*
%ADD10C,0.762000*%
%ADD11R,1.270000X1.270000*%
%ADD12C,1.270000*%
%ADD13C,1.778000*%
%ADD14C,1.397000*%
%ADD15C,0.000000*%
%ADD16R,2.032000X2.032000*%
%ADD17C,1.524000*%
%ADD18C,0.203200*%
D10*
X+2420500Y+2591500D02*
X+2420500Y+3170500D01*
X+2579500Y+3329500D01*
X+2420500Y+2591500D02*
X+2674500Y+2591500D01*
X+837000Y+2123500D02*
X+1131000Y+1829500D01*
X+2166500Y+1829500D01*
X+579500Y+3083500D02*
X+837000Y+2826000D01*
X+837000Y+2123500D01*
X+579500Y+4087500D02*
X+773500Y+3893500D01*
X+773500Y+3277500D01*
X+579500Y+3083500D01*
X+1563500Y+3329500D02*
X+1563500Y+2686500D01*
X+2420500Y+1829500D01*
X+579500Y+4087500D02*
X+737237Y+4245237D01*
X+1413763Y+4245237D01*
X+1579500Y+4079500D01*
X+1071500Y+4079500D02*
X+1071500Y+3337500D01*
X+1079500Y+3329500D01*
X+1563500Y+3329500D01*
X+1579500Y+4079500D02*
X+1920500Y+4079500D01*
X+2000000Y+4000000D01*
X+2200000Y+4000000D02*
X+2200000Y+2625000D01*
X+2166500Y+2591500D01*
X+2579500Y+3329500D02*
X+3266000Y+4016000D01*
X+3250000Y+4016000D01*
X+3250000Y+2329500D02*
X+3250000Y+2328108D01*
X+3250000Y+1829500D01*
X+2928500Y+1829500D01*
X+2166500Y+2591500D02*
X+2444000Y+2314000D01*
X+3250000Y+2328108D01*
X+3250000Y+2329500D02*
X+3250000Y+3000000D01*
X+579500Y+3579500D02*
X+329000Y+3830000D01*
X+329000Y+4536500D01*
X+3500000Y+4500000D01*
X+3500000Y+3750000D01*
X+2928500Y+3072000D01*
X+2928500Y+2591500D01*
X+2674500Y+1829500D02*
X+2611000Y+1829500D01*
X+2611000Y+1405000D01*
X+2766000Y+1250000D01*
X+837000Y+2123500D02*
X+837000Y+1980000D01*
X+817000Y+2000000D01*
X+750000Y+2000000D01*
X+2186500Y+587500D02*
X+2250000Y+587500D01*
X+1750000Y+1250000D02*
X+1670500Y+1250000D01*
X+1670500Y+1103500D01*
X+2186500Y+587500D01*
X+2250000Y+333500D02*
X+1980000Y+333500D01*
X+500000Y+2012000D01*
X+500000Y+2750000D01*
X+579500Y+2829500D01*
X+750000Y+984000D02*
X+750000Y+750000D01*
X+750000Y+496000D02*
X+746000Y+500000D01*
X+250000Y+500000D01*
X+250000Y+2500000D01*
X+452500Y+2956500D01*
X+3045000Y+587500D02*
X+2250000Y+587500D01*
X+2250000Y+333500D02*
X+3045000Y+333500D01*
D11*
X+2166500Y+1829500D03*
D12*
X+2420500Y+1829500D03*
X+2674500Y+1829500D03*
X+2928500Y+1829500D03*
X+2928500Y+2591500D03*
X+2674500Y+2591500D03*
X+2420500Y+2591500D03*
X+2166500Y+2591500D03*
D13*
X+3250000Y+4016000D03*
X+3250000Y+3000000D03*
X+1563500Y+3329500D03*
X+2579500Y+3329500D03*
X+1071500Y+4079500D03*
X+1579500Y+4079500D03*
X+579500Y+3579500D03*
X+579500Y+4087500D03*
D14*
X+2200000Y+4000000D03*
D15*
X+2200000Y+4000000D03*
D14*
X+2000000Y+4000000D03*
D15*
X+2000000Y+4000000D03*
D16*
X+3045000Y+587500D03*
X+3045000Y+333500D03*
X+2250000Y+333500D03*
X+2250000Y+587500D03*
X+750000Y+496000D03*
X+750000Y+750000D03*
D13*
X+750000Y+2000000D03*
X+750000Y+984000D03*
D17*
X+579500Y+2829500D03*
X+452500Y+2956500D03*
X+579500Y+3083500D03*
D13*
X+2766000Y+1250000D03*
X+1750000Y+1250000D03*
D18*
X+0Y+0D02*
X+3750000Y+0D01*
X+3750000Y+4750000D01*
X+0Y+4750000D01*
X+0Y+0D01*
M02*
