G04 PROTEUS RS274X GERBER FILE*
%FSLAX45Y45*%
%MOMM*%
G01*
%ADD18C,0.203200*%
%ADD21C,0.127000*%
%ADD22C,0.063500*%
D18*
X+2166500Y+1893000D02*
X+2166500Y+1766000D01*
X+2103000Y+1829500D02*
X+2230000Y+1829500D01*
X+2420500Y+1893000D02*
X+2420500Y+1766000D01*
X+2357000Y+1829500D02*
X+2484000Y+1829500D01*
X+2674500Y+1893000D02*
X+2674500Y+1766000D01*
X+2611000Y+1829500D02*
X+2738000Y+1829500D01*
X+2928500Y+1893000D02*
X+2928500Y+1766000D01*
X+2865000Y+1829500D02*
X+2992000Y+1829500D01*
X+2928500Y+2655000D02*
X+2928500Y+2528000D01*
X+2865000Y+2591500D02*
X+2992000Y+2591500D01*
X+2674500Y+2655000D02*
X+2674500Y+2528000D01*
X+2611000Y+2591500D02*
X+2738000Y+2591500D01*
X+2420500Y+2655000D02*
X+2420500Y+2528000D01*
X+2357000Y+2591500D02*
X+2484000Y+2591500D01*
X+2166500Y+2655000D02*
X+2166500Y+2528000D01*
X+2103000Y+2591500D02*
X+2230000Y+2591500D01*
X+3250000Y+4079500D02*
X+3250000Y+3952500D01*
X+3186500Y+4016000D02*
X+3313500Y+4016000D01*
X+3250000Y+3063500D02*
X+3250000Y+2936500D01*
X+3186500Y+3000000D02*
X+3313500Y+3000000D01*
X+1563500Y+3393000D02*
X+1563500Y+3266000D01*
X+1500000Y+3329500D02*
X+1627000Y+3329500D01*
X+2579500Y+3393000D02*
X+2579500Y+3266000D01*
X+2516000Y+3329500D02*
X+2643000Y+3329500D01*
X+1071500Y+4143000D02*
X+1071500Y+4016000D01*
X+1008000Y+4079500D02*
X+1135000Y+4079500D01*
X+1579500Y+4143000D02*
X+1579500Y+4016000D01*
X+1516000Y+4079500D02*
X+1643000Y+4079500D01*
X+579500Y+3643000D02*
X+579500Y+3516000D01*
X+516000Y+3579500D02*
X+643000Y+3579500D01*
X+579500Y+4151000D02*
X+579500Y+4024000D01*
X+516000Y+4087500D02*
X+643000Y+4087500D01*
X+2155099Y+4044901D02*
X+2244901Y+3955099D01*
X+2155099Y+3955099D02*
X+2244901Y+4044901D01*
X+1955099Y+4044901D02*
X+2044901Y+3955099D01*
X+1955099Y+3955099D02*
X+2044901Y+4044901D01*
X+3045000Y+651000D02*
X+3045000Y+524000D01*
X+2981500Y+587500D02*
X+3108500Y+587500D01*
X+3000099Y+632401D02*
X+3089901Y+542599D01*
X+3000099Y+542599D02*
X+3089901Y+632401D01*
X+3045000Y+397000D02*
X+3045000Y+270000D01*
X+2981500Y+333500D02*
X+3108500Y+333500D01*
X+3000099Y+378401D02*
X+3089901Y+288599D01*
X+3000099Y+288599D02*
X+3089901Y+378401D01*
X+2250000Y+397000D02*
X+2250000Y+270000D01*
X+2186500Y+333500D02*
X+2313500Y+333500D01*
X+2205099Y+378401D02*
X+2294901Y+288599D01*
X+2205099Y+288599D02*
X+2294901Y+378401D01*
X+2250000Y+651000D02*
X+2250000Y+524000D01*
X+2186500Y+587500D02*
X+2313500Y+587500D01*
X+2205099Y+632401D02*
X+2294901Y+542599D01*
X+2205099Y+542599D02*
X+2294901Y+632401D01*
X+750000Y+559500D02*
X+750000Y+432500D01*
X+686500Y+496000D02*
X+813500Y+496000D01*
X+705099Y+540901D02*
X+794901Y+451099D01*
X+705099Y+451099D02*
X+794901Y+540901D01*
X+750000Y+813500D02*
X+750000Y+686500D01*
X+686500Y+750000D02*
X+813500Y+750000D01*
X+705099Y+794901D02*
X+794901Y+705099D01*
X+705099Y+705099D02*
X+794901Y+794901D01*
X+750000Y+2063500D02*
X+750000Y+1936500D01*
X+686500Y+2000000D02*
X+813500Y+2000000D01*
X+750000Y+1047500D02*
X+750000Y+920500D01*
X+686500Y+984000D02*
X+813500Y+984000D01*
X+579500Y+2893000D02*
X+579500Y+2766000D01*
X+516000Y+2829500D02*
X+643000Y+2829500D01*
X+452500Y+3020000D02*
X+452500Y+2893000D01*
X+389000Y+2956500D02*
X+516000Y+2956500D01*
X+579500Y+3147000D02*
X+579500Y+3020000D01*
X+516000Y+3083500D02*
X+643000Y+3083500D01*
X+2766000Y+1313500D02*
X+2766000Y+1186500D01*
X+2702500Y+1250000D02*
X+2829500Y+1250000D01*
X+1750000Y+1313500D02*
X+1750000Y+1186500D01*
X+1686500Y+1250000D02*
X+1813500Y+1250000D01*
X+0Y+0D02*
X+3750000Y+0D01*
X+3750000Y+4750000D01*
X+0Y+4750000D01*
X+0Y+0D01*
D21*
X-10160Y-1267460D02*
X+2633980Y-1267460D01*
X+2633980Y-264160D01*
X-10160Y-264160D01*
X-10160Y-1267460D01*
D22*
X+457202Y-264160D02*
X+457202Y-1267460D01*
X+1270002Y-264160D02*
X+1270002Y-1267460D01*
X+2103122Y-264160D02*
X+2103122Y-1267460D01*
X-10160Y-537210D02*
X+2633980Y-537210D01*
X-10160Y-778510D02*
X+2633980Y-778510D01*
X-10160Y-1019810D02*
X+2633980Y-1019810D01*
D21*
X+46990Y-427990D02*
X+62230Y-443230D01*
X+123190Y-443230D01*
X+138430Y-427990D01*
X+138430Y-412750D01*
X+123190Y-397510D01*
X+62230Y-397510D01*
X+46990Y-382270D01*
X+46990Y-367030D01*
X+62230Y-351790D01*
X+123190Y-351790D01*
X+138430Y-367030D01*
X+260350Y-351790D02*
X+168910Y-443230D01*
X+168910Y-351790D02*
X+214630Y-397510D01*
X+290830Y-443230D02*
X+290830Y-351790D01*
X+336550Y-397510D01*
X+382270Y-351790D01*
X+382270Y-443230D01*
X+514350Y-427990D02*
X+529590Y-443230D01*
X+590550Y-443230D01*
X+605790Y-427990D01*
X+605790Y-412750D01*
X+590550Y-397510D01*
X+529590Y-397510D01*
X+514350Y-382270D01*
X+514350Y-367030D01*
X+529590Y-351790D01*
X+590550Y-351790D01*
X+605790Y-367030D01*
X+651510Y-351790D02*
X+712470Y-351790D01*
X+681990Y-351790D02*
X+681990Y-443230D01*
X+651510Y-443230D02*
X+712470Y-443230D01*
X+758190Y-351790D02*
X+849630Y-351790D01*
X+758190Y-443230D01*
X+849630Y-443230D01*
X+971550Y-443230D02*
X+880110Y-443230D01*
X+880110Y-351790D01*
X+971550Y-351790D01*
X+880110Y-397510D02*
X+941070Y-397510D01*
X+1327150Y-443230D02*
X+1327150Y-351790D01*
X+1403350Y-351790D01*
X+1418590Y-367030D01*
X+1418590Y-382270D01*
X+1403350Y-397510D01*
X+1327150Y-397510D01*
X+1449070Y-351790D02*
X+1449070Y-443230D01*
X+1540510Y-443230D01*
X+1570990Y-443230D02*
X+1570990Y-382270D01*
X+1601470Y-351790D01*
X+1631950Y-351790D01*
X+1662430Y-382270D01*
X+1662430Y-443230D01*
X+1570990Y-412750D02*
X+1662430Y-412750D01*
X+1692910Y-351790D02*
X+1784350Y-351790D01*
X+1738630Y-351790D02*
X+1738630Y-443230D01*
X+1906270Y-443230D02*
X+1814830Y-443230D01*
X+1814830Y-351790D01*
X+1906270Y-351790D01*
X+1814830Y-397510D02*
X+1875790Y-397510D01*
X+1936750Y-443230D02*
X+1936750Y-351790D01*
X+1997710Y-351790D01*
X+2028190Y-382270D01*
X+2028190Y-412750D01*
X+1997710Y-443230D01*
X+1936750Y-443230D01*
X+2160270Y-382270D02*
X+2190750Y-351790D01*
X+2221230Y-351790D01*
X+2251710Y-382270D01*
X+2251710Y-412750D01*
X+2221230Y-443230D01*
X+2190750Y-443230D01*
X+2160270Y-412750D01*
X+2160270Y-382270D01*
X+2221230Y-412750D02*
X+2251710Y-443230D01*
X+2282190Y-351790D02*
X+2373630Y-351790D01*
X+2327910Y-351790D02*
X+2327910Y-443230D01*
X+2495550Y-351790D02*
X+2404110Y-443230D01*
X+2404110Y-351790D02*
X+2449830Y-397510D01*
D18*
X+236220Y-588010D02*
X+236220Y-715010D01*
X+172720Y-651510D02*
X+299720Y-651510D01*
D21*
X+533400Y-676910D02*
X+533400Y-626110D01*
X+546100Y-613410D01*
X+596900Y-613410D01*
X+609600Y-626110D01*
X+609600Y-676910D01*
X+596900Y-689610D01*
X+546100Y-689610D01*
X+533400Y-676910D01*
X+533400Y-689610D02*
X+609600Y-613410D01*
X+673100Y-676910D02*
X+685800Y-676910D01*
X+685800Y-689610D01*
X+673100Y-689610D01*
X+673100Y-676910D01*
X+749300Y-613410D02*
X+812800Y-613410D01*
X+812800Y-626110D01*
X+749300Y-689610D01*
X+914400Y-626110D02*
X+901700Y-613410D01*
X+863600Y-613410D01*
X+850900Y-626110D01*
X+850900Y-676910D01*
X+863600Y-689610D01*
X+901700Y-689610D01*
X+914400Y-676910D01*
X+914400Y-664210D01*
X+901700Y-651510D01*
X+850900Y-651510D01*
X+952500Y-626110D02*
X+965200Y-613410D01*
X+1003300Y-613410D01*
X+1016000Y-626110D01*
X+1016000Y-638810D01*
X+1003300Y-651510D01*
X+965200Y-651510D01*
X+952500Y-664210D01*
X+952500Y-689610D01*
X+1016000Y-689610D01*
X+1041400Y-689610D02*
X+1041400Y-638810D01*
X+1041400Y-651510D02*
X+1054100Y-638810D01*
X+1079500Y-664210D01*
X+1104900Y-638810D01*
X+1117600Y-651510D01*
X+1117600Y-689610D01*
X+1143000Y-689610D02*
X+1143000Y-638810D01*
X+1143000Y-651510D02*
X+1155700Y-638810D01*
X+1181100Y-664210D01*
X+1206500Y-638810D01*
X+1219200Y-651510D01*
X+1219200Y-689610D01*
X+1435100Y-613410D02*
X+1358900Y-689610D01*
X+1358900Y-613410D02*
X+1397000Y-651510D01*
X+1536700Y-689610D02*
X+1460500Y-689610D01*
X+1460500Y-613410D01*
X+1536700Y-613410D01*
X+1460500Y-651510D02*
X+1511300Y-651510D01*
X+1562100Y-676910D02*
X+1574800Y-689610D01*
X+1625600Y-689610D01*
X+1638300Y-676910D01*
X+1638300Y-664210D01*
X+1625600Y-651510D01*
X+1574800Y-651510D01*
X+1562100Y-638810D01*
X+1562100Y-626110D01*
X+1574800Y-613410D01*
X+1625600Y-613410D01*
X+1638300Y-626110D01*
X+2217420Y-626110D02*
X+2230120Y-613410D01*
X+2268220Y-613410D01*
X+2280920Y-626110D01*
X+2280920Y-638810D01*
X+2268220Y-651510D01*
X+2230120Y-651510D01*
X+2217420Y-664210D01*
X+2217420Y-689610D01*
X+2280920Y-689610D01*
X+2319020Y-626110D02*
X+2331720Y-613410D01*
X+2369820Y-613410D01*
X+2382520Y-626110D01*
X+2382520Y-638810D01*
X+2369820Y-651510D01*
X+2382520Y-664210D01*
X+2382520Y-676910D01*
X+2369820Y-689610D01*
X+2331720Y-689610D01*
X+2319020Y-676910D01*
X+2344420Y-651510D02*
X+2369820Y-651510D01*
D18*
X+191319Y-847909D02*
X+281121Y-937711D01*
X+191319Y-937711D02*
X+281121Y-847909D01*
D21*
X+533400Y-918210D02*
X+533400Y-867410D01*
X+546100Y-854710D01*
X+596900Y-854710D01*
X+609600Y-867410D01*
X+609600Y-918210D01*
X+596900Y-930910D01*
X+546100Y-930910D01*
X+533400Y-918210D01*
X+533400Y-930910D02*
X+609600Y-854710D01*
X+673100Y-918210D02*
X+685800Y-918210D01*
X+685800Y-930910D01*
X+673100Y-930910D01*
X+673100Y-918210D01*
X+762000Y-892810D02*
X+749300Y-880110D01*
X+749300Y-867410D01*
X+762000Y-854710D01*
X+800100Y-854710D01*
X+812800Y-867410D01*
X+812800Y-880110D01*
X+800100Y-892810D01*
X+762000Y-892810D01*
X+749300Y-905510D01*
X+749300Y-918210D01*
X+762000Y-930910D01*
X+800100Y-930910D01*
X+812800Y-918210D01*
X+812800Y-905510D01*
X+800100Y-892810D01*
X+863600Y-880110D02*
X+889000Y-854710D01*
X+889000Y-930910D01*
X+952500Y-867410D02*
X+965200Y-854710D01*
X+1003300Y-854710D01*
X+1016000Y-867410D01*
X+1016000Y-880110D01*
X+1003300Y-892810D01*
X+1016000Y-905510D01*
X+1016000Y-918210D01*
X+1003300Y-930910D01*
X+965200Y-930910D01*
X+952500Y-918210D01*
X+977900Y-892810D02*
X+1003300Y-892810D01*
X+1041400Y-930910D02*
X+1041400Y-880110D01*
X+1041400Y-892810D02*
X+1054100Y-880110D01*
X+1079500Y-905510D01*
X+1104900Y-880110D01*
X+1117600Y-892810D01*
X+1117600Y-930910D01*
X+1143000Y-930910D02*
X+1143000Y-880110D01*
X+1143000Y-892810D02*
X+1155700Y-880110D01*
X+1181100Y-905510D01*
X+1206500Y-880110D01*
X+1219200Y-892810D01*
X+1219200Y-930910D01*
X+1435100Y-854710D02*
X+1358900Y-930910D01*
X+1358900Y-854710D02*
X+1397000Y-892810D01*
X+1536700Y-930910D02*
X+1460500Y-930910D01*
X+1460500Y-854710D01*
X+1536700Y-854710D01*
X+1460500Y-892810D02*
X+1511300Y-892810D01*
X+1562100Y-918210D02*
X+1574800Y-930910D01*
X+1625600Y-930910D01*
X+1638300Y-918210D01*
X+1638300Y-905510D01*
X+1625600Y-892810D01*
X+1574800Y-892810D01*
X+1562100Y-880110D01*
X+1562100Y-867410D01*
X+1574800Y-854710D01*
X+1625600Y-854710D01*
X+1638300Y-867410D01*
X+2217420Y-867410D02*
X+2230120Y-854710D01*
X+2268220Y-854710D01*
X+2280920Y-867410D01*
X+2280920Y-880110D01*
X+2268220Y-892810D01*
X+2230120Y-892810D01*
X+2217420Y-905510D01*
X+2217420Y-930910D01*
X+2280920Y-930910D01*
D18*
X+236220Y-1070610D02*
X+236220Y-1197610D01*
X+172720Y-1134110D02*
X+299720Y-1134110D01*
X+191319Y-1089209D02*
X+281121Y-1179011D01*
X+191319Y-1179011D02*
X+281121Y-1089209D01*
D21*
X+558800Y-1121410D02*
X+584200Y-1096010D01*
X+584200Y-1172210D01*
X+673100Y-1159510D02*
X+685800Y-1159510D01*
X+685800Y-1172210D01*
X+673100Y-1172210D01*
X+673100Y-1159510D01*
X+736600Y-1159510D02*
X+736600Y-1108710D01*
X+749300Y-1096010D01*
X+800100Y-1096010D01*
X+812800Y-1108710D01*
X+812800Y-1159510D01*
X+800100Y-1172210D01*
X+749300Y-1172210D01*
X+736600Y-1159510D01*
X+736600Y-1172210D02*
X+812800Y-1096010D01*
X+863600Y-1121410D02*
X+889000Y-1096010D01*
X+889000Y-1172210D01*
X+1016000Y-1108710D02*
X+1003300Y-1096010D01*
X+965200Y-1096010D01*
X+952500Y-1108710D01*
X+952500Y-1159510D01*
X+965200Y-1172210D01*
X+1003300Y-1172210D01*
X+1016000Y-1159510D01*
X+1016000Y-1146810D01*
X+1003300Y-1134110D01*
X+952500Y-1134110D01*
X+1041400Y-1172210D02*
X+1041400Y-1121410D01*
X+1041400Y-1134110D02*
X+1054100Y-1121410D01*
X+1079500Y-1146810D01*
X+1104900Y-1121410D01*
X+1117600Y-1134110D01*
X+1117600Y-1172210D01*
X+1143000Y-1172210D02*
X+1143000Y-1121410D01*
X+1143000Y-1134110D02*
X+1155700Y-1121410D01*
X+1181100Y-1146810D01*
X+1206500Y-1121410D01*
X+1219200Y-1134110D01*
X+1219200Y-1172210D01*
X+1435100Y-1096010D02*
X+1358900Y-1172210D01*
X+1358900Y-1096010D02*
X+1397000Y-1134110D01*
X+1536700Y-1172210D02*
X+1460500Y-1172210D01*
X+1460500Y-1096010D01*
X+1536700Y-1096010D01*
X+1460500Y-1134110D02*
X+1511300Y-1134110D01*
X+1562100Y-1159510D02*
X+1574800Y-1172210D01*
X+1625600Y-1172210D01*
X+1638300Y-1159510D01*
X+1638300Y-1146810D01*
X+1625600Y-1134110D01*
X+1574800Y-1134110D01*
X+1562100Y-1121410D01*
X+1562100Y-1108710D01*
X+1574800Y-1096010D01*
X+1625600Y-1096010D01*
X+1638300Y-1108710D01*
X+2280920Y-1108710D02*
X+2268220Y-1096010D01*
X+2230120Y-1096010D01*
X+2217420Y-1108710D01*
X+2217420Y-1159510D01*
X+2230120Y-1172210D01*
X+2268220Y-1172210D01*
X+2280920Y-1159510D01*
X+2280920Y-1146810D01*
X+2268220Y-1134110D01*
X+2217420Y-1134110D01*
M02*
